<?xml version="1.0" standalone="no"?>
<!DOCTYPE svg PUBLIC "-//W3C//DTD SVG 20010904//EN"
 "http://www.w3.org/TR/2001/REC-SVG-20010904/DTD/svg10.dtd">
<svg version="1.0" xmlns="http://www.w3.org/2000/svg"
 width="1024.000000pt" height="1024.000000pt" viewBox="0 0 1024.000000 1024.000000"
 preserveAspectRatio="xMidYMid meet">
<metadata>
Created by potrace 1.14, written by Peter Selinger 2001-2017
</metadata>
<g transform="translate(0.000000,1024.000000) scale(0.100000,-0.100000)"
fill="#000000" stroke="none">
<path d="M4918 10235 c-2 -1 -42 -5 -91 -9 -84 -6 -355 -44 -368 -51 -3 -2
-19 -7 -36 -9 -166 -30 -462 -130 -678 -231 -156 -73 -412 -220 -477 -274 -11
-9 -113 -85 -153 -113 -84 -59 -328 -292 -425 -404 -69 -80 -83 -97 -164 -207
-226 -305 -390 -639 -497 -1012 -22 -77 -66 -292 -74 -364 -3 -25 -8 -55 -10
-66 -19 -92 -27 -493 -13 -645 13 -138 35 -297 43 -309 2 -4 6 -25 10 -49 12
-83 103 -401 131 -456 8 -16 14 -33 14 -38 0 -10 26 -67 93 -208 28 -58 51
-107 51 -110 5 -21 147 -251 216 -349 125 -179 316 -390 490 -541 41 -36 77
-68 80 -71 3 -3 52 -41 110 -84 196 -148 330 -296 409 -452 64 -129 84 -207
95 -381 13 -188 103 -355 258 -478 34 -27 130 -74 194 -96 l69 -23 925 0 925
0 70 24 c115 39 188 84 271 166 101 101 166 244 179 400 3 28 7 75 9 105 7 73
40 190 75 259 49 97 52 102 116 190 20 28 236 241 244 241 4 0 17 8 29 18 11
10 33 27 48 38 14 10 37 28 49 39 13 11 59 49 102 85 102 86 250 233 344 345
89 106 191 240 209 275 7 14 16 27 19 30 23 19 131 207 206 360 91 185 201
504 232 670 2 14 8 44 13 67 60 267 73 710 31 1008 -17 117 -22 147 -38 220
-8 39 -16 78 -18 87 -6 29 -46 172 -52 188 -3 8 -7 20 -9 25 -50 171 -232 570
-290 636 -8 8 -14 19 -14 23 0 15 -174 268 -215 312 -5 6 -23 29 -40 50 -118
152 -352 379 -525 508 -41 30 -79 59 -85 64 -5 4 -55 37 -110 73 -411 270
-894 448 -1360 503 -27 3 -70 9 -95 12 -45 6 -516 14 -522 9z m285 -968 c140
-35 241 -174 233 -321 -7 -112 -47 -188 -131 -245 -67 -47 -111 -57 -270 -65
-80 -4 -269 -31 -285 -41 -4 -2 -21 -7 -38 -10 -17 -3 -68 -19 -114 -35 -46
-17 -87 -32 -93 -34 -28 -8 -136 -63 -208 -106 -242 -143 -465 -380 -594 -630
-35 -66 -85 -182 -89 -202 -1 -5 -2 -9 -4 -10 -1 -2 -3 -10 -6 -18 -2 -8 -15
-55 -29 -105 -14 -49 -28 -110 -31 -135 -3 -25 -7 -52 -10 -60 -2 -9 -6 -63
-9 -120 -9 -175 -25 -230 -85 -303 -25 -30 -92 -73 -140 -89 -47 -15 -143 -17
-195 -3 -89 24 -185 123 -213 219 -11 39 -10 266 1 336 4 19 9 53 11 75 27
217 123 512 237 724 38 68 130 220 150 245 5 6 36 47 70 91 83 108 293 314
409 401 259 194 580 342 880 403 133 28 142 29 234 37 44 3 82 8 84 9 9 8 199
1 235 -8z"/>
<path d="M4170 2539 c-30 -11 -59 -21 -65 -22 -16 -4 -99 -64 -115 -84 -36
-43 -80 -113 -80 -127 0 -8 -4 -17 -9 -20 -8 -5 -27 -69 -37 -123 -2 -13 -7
-35 -11 -50 -4 -16 -8 -186 -9 -379 -1 -283 1 -364 13 -415 8 -35 16 -69 17
-74 6 -38 67 -137 109 -177 28 -27 52 -59 53 -71 16 -126 24 -167 50 -243 30
-88 88 -208 120 -251 13 -17 24 -36 24 -42 0 -24 209 -220 290 -273 141 -91
314 -155 475 -176 77 -10 297 -9 360 2 325 56 576 236 741 531 65 118 116 294
129 443 2 24 15 45 49 78 56 53 92 125 110 223 20 102 20 715 0 831 -42 246
-156 387 -347 430 -30 6 -354 10 -929 9 -849 -1 -885 -1 -938 -20z"/>
</g>
</svg>
